<svg width="431" height="134" viewBox="0 0 431 134" fill="none" xmlns="http://www.w3.org/2000/svg">
<path d="M28.8085 100.41C24.0725 100.41 19.9125 99.3216 16.3285 97.1456C12.8085 94.9696 10.0565 91.9936 8.07247 88.2176C6.15247 84.4416 5.19247 80.1536 5.19247 75.3536C5.19247 70.5536 6.18447 66.2976 8.16847 62.5856C10.1525 58.8096 12.9045 55.8656 16.4245 53.7536C19.9445 51.5776 24.1045 50.4896 28.9045 50.4896C32.8085 50.4896 36.2645 51.2896 39.2725 52.8896C42.2805 54.4896 44.6165 56.7296 46.2805 59.6096V30.1376H54.3445V99.2576H47.0485L46.2805 91.3856C44.7445 93.6896 42.5365 95.7696 39.6565 97.6256C36.7765 99.4816 33.1605 100.41 28.8085 100.41ZM29.6725 93.4016C32.8725 93.4016 35.6885 92.6656 38.1205 91.1936C40.6165 89.6576 42.5365 87.5456 43.8805 84.8576C45.2885 82.1696 45.9925 79.0336 45.9925 75.4496C45.9925 71.8656 45.2885 68.7296 43.8805 66.0416C42.5365 63.3536 40.6165 61.2736 38.1205 59.8016C35.6885 58.2656 32.8725 57.4976 29.6725 57.4976C26.5365 57.4976 23.7205 58.2656 21.2245 59.8016C18.7925 61.2736 16.8725 63.3536 15.4645 66.0416C14.1205 68.7296 13.4485 71.8656 13.4485 75.4496C13.4485 79.0336 14.1205 82.1696 15.4645 84.8576C16.8725 87.5456 18.7925 89.6576 21.2245 91.1936C23.7205 92.6656 26.5365 93.4016 29.6725 93.4016ZM88.8977 100.41C84.3537 100.41 80.3217 99.3856 76.8017 97.3376C73.2817 95.2256 70.4977 92.3136 68.4497 88.6016C66.4657 84.8896 65.4737 80.5056 65.4737 75.4496C65.4737 70.4576 66.4657 66.1056 68.4497 62.3936C70.4337 58.6176 73.1857 55.7056 76.7057 53.6576C80.2897 51.5456 84.4177 50.4896 89.0897 50.4896C93.6977 50.4896 97.6657 51.5456 100.994 53.6576C104.386 55.7056 106.978 58.4256 108.77 61.8176C110.562 65.2096 111.458 68.8576 111.458 72.7616C111.458 73.4656 111.426 74.1696 111.362 74.8736C111.362 75.5776 111.362 76.3776 111.362 77.2736H73.4417C73.6337 80.9216 74.4657 83.9616 75.9377 86.3936C77.4737 88.7616 79.3617 90.5536 81.6017 91.7696C83.9057 92.9856 86.3377 93.5936 88.8977 93.5936C92.2257 93.5936 95.0097 92.8256 97.2497 91.2896C99.4897 89.7536 101.122 87.6736 102.146 85.0496H110.114C108.834 89.4656 106.37 93.1456 102.722 96.0896C99.1377 98.9696 94.5297 100.41 88.8977 100.41ZM88.8977 57.3056C85.0577 57.3056 81.6337 58.4896 78.6257 60.8576C75.6817 63.1616 73.9857 66.5536 73.5377 71.0336H103.49C103.298 66.7456 101.826 63.3856 99.0737 60.9536C96.3217 58.5216 92.9297 57.3056 88.8977 57.3056ZM139.368 99.2576C135.016 99.2576 131.592 98.2016 129.096 96.0896C126.6 93.9776 125.352 90.1696 125.352 84.6656V58.4576H117.096V51.6416H125.352L126.408 40.2176H133.416V51.6416H147.432V58.4576H133.416V84.6656C133.416 87.6736 134.024 89.7216 135.24 90.8096C136.456 91.8336 138.6 92.3456 141.672 92.3456H146.664V99.2576H139.368ZM173.517 100.41C169.549 100.41 166.253 99.7376 163.629 98.3936C161.005 97.0496 159.053 95.2576 157.773 93.0176C156.493 90.7776 155.853 88.3456 155.853 85.7216C155.853 80.8576 157.709 77.1136 161.421 74.4896C165.133 71.8656 170.189 70.5536 176.589 70.5536H189.453V69.9776C189.453 65.8176 188.365 62.6816 186.189 60.5696C184.013 58.3936 181.101 57.3056 177.453 57.3056C174.317 57.3056 171.597 58.1056 169.293 59.7056C167.053 61.2416 165.645 63.5136 165.069 66.5216H156.813C157.133 63.0656 158.285 60.1536 160.269 57.7856C162.317 55.4176 164.845 53.6256 167.853 52.4096C170.861 51.1296 174.061 50.4896 177.453 50.4896C184.109 50.4896 189.101 52.2816 192.429 55.8656C195.821 59.3856 197.517 64.0896 197.517 69.9776V99.2576H190.317L189.837 90.7136C188.493 93.4016 186.509 95.7056 183.885 97.6256C181.325 99.4816 177.869 100.41 173.517 100.41ZM174.765 93.5936C177.837 93.5936 180.461 92.7936 182.637 91.1936C184.877 89.5936 186.573 87.5136 187.725 84.9536C188.877 82.3936 189.453 79.7056 189.453 76.8896V76.7936H177.261C172.525 76.7936 169.165 77.6256 167.181 79.2896C165.261 80.8896 164.301 82.9056 164.301 85.3376C164.301 87.8336 165.197 89.8496 166.989 91.3856C168.845 92.8576 171.437 93.5936 174.765 93.5936ZM231.503 100.41C226.959 100.41 222.863 99.3856 219.215 97.3376C215.631 95.2256 212.783 92.3136 210.671 88.6016C208.623 84.8256 207.599 80.4416 207.599 75.4496C207.599 70.4576 208.623 66.1056 210.671 62.3936C212.783 58.6176 215.631 55.7056 219.215 53.6576C222.863 51.5456 226.959 50.4896 231.503 50.4896C237.135 50.4896 241.871 51.9616 245.711 54.9056C249.615 57.8496 252.079 61.7856 253.103 66.7136H244.847C244.207 63.7696 242.639 61.4976 240.143 59.8976C237.647 58.2336 234.735 57.4016 231.407 57.4016C228.719 57.4016 226.191 58.0736 223.823 59.4176C221.455 60.7616 219.535 62.7776 218.063 65.4656C216.591 68.1536 215.855 71.4816 215.855 75.4496C215.855 79.4176 216.591 82.7456 218.063 85.4336C219.535 88.1216 221.455 90.1696 223.823 91.5776C226.191 92.9216 228.719 93.5936 231.407 93.5936C234.735 93.5936 237.647 92.7936 240.143 91.1936C242.639 89.5296 244.207 87.1936 244.847 84.1856H253.103C252.143 88.9856 249.711 92.8896 245.807 95.8976C241.903 98.9056 237.135 100.41 231.503 100.41ZM264.365 99.2576V30.1376H272.429V59.8016C274.029 56.8576 276.301 54.5856 279.245 52.9856C282.189 51.3216 285.389 50.4896 288.845 50.4896C294.349 50.4896 298.765 52.2176 302.093 55.6736C305.421 59.0656 307.085 64.3136 307.085 71.4176V99.2576H299.117V72.2816C299.117 62.3616 295.117 57.4016 287.117 57.4016C282.957 57.4016 279.469 58.9056 276.653 61.9136C273.837 64.8576 272.429 69.0816 272.429 74.5856V99.2576H264.365ZM340.71 100.41C336.166 100.41 332.134 99.3856 328.614 97.3376C325.094 95.2256 322.31 92.3136 320.262 88.6016C318.278 84.8896 317.286 80.5056 317.286 75.4496C317.286 70.4576 318.278 66.1056 320.262 62.3936C322.246 58.6176 324.998 55.7056 328.518 53.6576C332.102 51.5456 336.23 50.4896 340.902 50.4896C345.51 50.4896 349.478 51.5456 352.806 53.6576C356.198 55.7056 358.79 58.4256 360.582 61.8176C362.374 65.2096 363.27 68.8576 363.27 72.7616C363.27 73.4656 363.238 74.1696 363.174 74.8736C363.174 75.5776 363.174 76.3776 363.174 77.2736H325.254C325.446 80.9216 326.278 83.9616 327.75 86.3936C329.286 88.7616 331.174 90.5536 333.414 91.7696C335.718 92.9856 338.15 93.5936 340.71 93.5936C344.038 93.5936 346.822 92.8256 349.062 91.2896C351.302 89.7536 352.934 87.6736 353.958 85.0496H361.926C360.646 89.4656 358.182 93.1456 354.534 96.0896C350.95 98.9696 346.342 100.41 340.71 100.41ZM340.71 57.3056C336.87 57.3056 333.446 58.4896 330.438 60.8576C327.494 63.1616 325.798 66.5536 325.35 71.0336H355.302C355.11 66.7456 353.638 63.3856 350.886 60.9536C348.134 58.5216 344.742 57.3056 340.71 57.3056ZM395.558 100.41C390.822 100.41 386.662 99.3216 383.078 97.1456C379.558 94.9696 376.806 91.9936 374.822 88.2176C372.902 84.4416 371.942 80.1536 371.942 75.3536C371.942 70.5536 372.934 66.2976 374.918 62.5856C376.902 58.8096 379.654 55.8656 383.174 53.7536C386.694 51.5776 390.854 50.4896 395.654 50.4896C399.558 50.4896 403.014 51.2896 406.022 52.8896C409.03 54.4896 411.366 56.7296 413.03 59.6096V30.1376H421.094V99.2576H413.798L413.03 91.3856C411.494 93.6896 409.286 95.7696 406.406 97.6256C403.526 99.4816 399.91 100.41 395.558 100.41ZM396.422 93.4016C399.622 93.4016 402.438 92.6656 404.87 91.1936C407.366 89.6576 409.286 87.5456 410.63 84.8576C412.038 82.1696 412.742 79.0336 412.742 75.4496C412.742 71.8656 412.038 68.7296 410.63 66.0416C409.286 63.3536 407.366 61.2736 404.87 59.8016C402.438 58.2656 399.622 57.4976 396.422 57.4976C393.286 57.4976 390.47 58.2656 387.974 59.8016C385.542 61.2736 383.622 63.3536 382.214 66.0416C380.87 68.7296 380.198 71.8656 380.198 75.4496C380.198 79.0336 380.87 82.1696 382.214 84.8576C383.622 87.5456 385.542 89.6576 387.974 91.1936C390.47 92.6656 393.286 93.4016 396.422 93.4016Z" fill="#5282FF"/>
<path d="M28.9455 104.575C24.2095 104.585 20.0472 103.506 16.4587 101.337C12.9341 99.1684 10.1758 96.1982 8.18392 92.4264C6.256 88.6544 5.287 84.3685 5.27692 79.5685C5.26684 74.7685 6.2499 70.5104 8.22611 66.7942C10.2022 63.0141 12.948 60.0643 16.4635 57.9449C19.979 55.7615 24.1367 54.6648 28.9367 54.6547C32.8407 54.6465 36.2983 55.4393 39.3097 57.033C42.321 58.6266 44.6617 60.8617 46.3318 63.7382L46.2699 34.2663L54.3339 34.2494L54.479 103.369L47.183 103.385L46.3985 95.5142C44.8673 97.8214 42.6637 99.906 39.7876 101.768C36.9115 103.63 33.2975 104.566 28.9455 104.575ZM29.7948 97.565C32.9948 97.5583 35.8092 96.8164 38.2381 95.3393C40.7309 93.7981 42.6464 91.682 43.9848 88.9912C45.3871 86.3003 46.0846 83.1628 46.077 79.5788C46.0695 75.9948 45.3589 72.8603 43.9453 70.1753C42.5956 67.4901 40.6713 65.4141 38.1722 63.9474C35.737 62.4165 32.9194 61.6544 29.7194 61.6611C26.5834 61.6677 23.769 62.4416 21.2762 63.9828C18.8473 65.4599 16.9317 67.544 15.5293 70.2349C14.191 72.9257 13.5256 76.0631 13.5331 79.6471C13.5406 83.2311 14.2192 86.3657 15.5689 89.0509C16.9825 91.7359 18.9069 93.8439 21.3421 95.3748C23.8412 96.8415 26.6588 97.5716 29.7948 97.565ZM89.0346 104.449C84.4906 104.458 80.4565 103.443 76.9322 101.402C73.4077 99.2975 70.6176 96.3913 68.5618 92.6836C66.5701 88.9758 65.5689 84.5939 65.5582 79.5379C65.5478 74.5459 66.5306 70.1918 68.5068 66.4757C70.4829 62.6955 73.2288 59.7777 76.7445 57.7224C80.324 55.6028 84.4498 54.5382 89.1218 54.5284C93.7298 54.5187 97.7 55.5664 101.032 57.6714C104.429 59.7122 107.026 62.4268 108.826 65.815C110.625 69.2032 111.528 72.8494 111.536 76.7534C111.538 77.4573 111.507 78.1614 111.445 78.8655C111.446 79.5695 111.448 80.3695 111.45 81.2655L73.5301 81.3452C73.7297 84.9928 74.5681 88.031 76.0452 90.4599C77.5862 92.8247 79.4779 94.6127 81.7205 95.824C84.027 97.0352 86.4603 97.638 89.0203 97.6327C92.3483 97.6257 95.1307 96.8518 97.3674 95.3111C99.6042 93.7704 101.232 91.687 102.25 89.0609L110.218 89.0441C108.948 93.4628 106.491 97.148 102.849 100.1C99.2716 102.987 94.6666 104.437 89.0346 104.449ZM88.9441 61.3448C85.1041 61.3528 81.6826 62.544 78.6796 64.9183C75.7404 67.2285 74.0515 70.624 73.6129 75.105L103.565 75.0421C103.364 70.7545 101.885 67.3976 99.1277 64.9714C96.3706 62.5452 92.9761 61.3363 88.9441 61.3448ZM139.503 103.191C135.151 103.2 131.724 102.151 129.224 100.044C126.724 97.9375 125.468 94.1321 125.456 88.6282L125.401 62.4202L117.145 62.4375L117.131 55.6216L125.387 55.6042L126.419 44.178L133.427 44.1633L133.451 55.5873L147.467 55.5579L147.481 62.3738L133.465 62.4033L133.52 88.6112C133.526 91.6192 134.139 93.6659 135.357 94.7514C136.575 95.7728 138.72 96.2803 141.792 96.2739L146.784 96.2634L146.799 103.175L139.503 103.191ZM173.654 104.271C169.686 104.279 166.389 103.614 163.762 102.276C161.135 100.937 159.179 99.1494 157.894 96.9121C156.61 94.6748 155.965 92.2441 155.959 89.6201C155.949 84.7561 157.797 81.0082 161.504 78.3764C165.21 75.7447 170.263 74.422 176.663 74.4086L189.527 74.3816L189.526 73.8056C189.517 69.6456 188.423 66.5119 186.242 64.4045C184.062 62.233 181.147 61.1512 177.499 61.1588C174.363 61.1654 171.645 61.9711 169.344 63.5759C167.108 65.1166 165.704 67.3916 165.135 70.4008L156.879 70.4181C157.192 66.9615 158.337 64.0471 160.316 61.6749C162.359 59.3026 164.884 57.5053 167.889 56.283C170.894 54.9967 174.093 54.35 177.485 54.3428C184.141 54.3289 189.137 56.1104 192.472 59.6874C195.872 63.2002 197.578 67.9007 197.59 73.7887L197.651 103.069L190.451 103.084L189.954 94.5407C188.615 97.2316 186.636 99.5397 184.016 101.465C181.46 103.327 178.006 104.262 173.654 104.271ZM174.888 97.4524C177.96 97.4459 180.582 96.6404 182.755 95.0359C184.991 93.4312 186.683 91.3476 187.829 88.7852C188.976 86.2228 189.546 83.5336 189.54 80.7176L189.54 80.6216L177.348 80.6472C172.612 80.6571 169.254 81.4962 167.274 83.1643C165.357 84.7684 164.401 86.7864 164.406 89.2184C164.412 91.7144 165.312 93.7285 167.107 95.2607C168.966 96.7288 171.56 97.4594 174.888 97.4524ZM231.639 104.149C227.095 104.159 222.997 103.143 219.345 101.103C215.756 98.9986 212.902 96.0926 210.783 92.385C208.727 88.6133 207.693 84.2315 207.683 79.2395C207.672 74.2475 208.687 69.8934 210.728 66.1771C212.832 62.3966 215.673 59.4787 219.253 57.4231C222.897 55.3035 226.99 54.2389 231.534 54.2293C237.166 54.2175 241.906 55.6796 245.752 58.6155C249.662 61.5513 252.134 65.4821 253.168 70.408L244.913 70.4253C244.266 67.4826 242.694 65.2139 240.194 63.6192C237.695 61.9604 234.781 61.1345 231.453 61.1415C228.765 61.1472 226.238 61.8245 223.873 63.1735C221.508 64.5224 219.592 66.5424 218.126 69.2335C216.66 71.9246 215.931 75.2542 215.939 79.2221C215.947 83.1901 216.69 86.5166 218.168 89.2015C219.646 91.8864 221.57 93.9304 223.941 95.3334C226.312 96.6724 228.841 97.3391 231.529 97.3335C234.857 97.3265 237.767 96.5204 240.26 94.9151C242.752 93.2459 244.316 90.9066 244.949 87.8973L253.205 87.8799C252.255 92.6819 249.831 96.591 245.934 99.6072C242.036 102.623 237.271 104.137 231.639 104.149ZM264.499 102.928L264.354 33.8084L272.418 33.7915L272.48 63.4554C274.074 60.508 276.341 58.2313 279.282 56.6251C282.222 54.9549 285.42 54.1162 288.876 54.1089C294.38 54.0974 298.8 55.8161 302.135 59.2651C305.47 62.6501 307.145 67.8946 307.16 74.9986L307.219 102.839L299.251 102.855L299.194 75.8793C299.173 65.9594 295.163 61.0078 287.163 61.0246C283.003 61.0333 279.518 62.5446 276.708 65.5585C273.899 68.5084 272.499 72.7354 272.511 78.2394L272.563 102.911L264.499 102.928ZM340.847 103.92C336.303 103.929 332.268 102.914 328.744 100.873C325.22 98.7687 322.43 95.8626 320.374 92.1549C318.382 88.4471 317.381 84.0652 317.37 79.0092C317.36 74.0172 318.343 69.6631 320.319 65.947C322.295 62.1668 325.041 59.249 328.556 57.1936C332.136 55.0741 336.262 54.0095 340.934 53.9996C345.542 53.99 349.512 55.0376 352.844 57.1426C356.241 59.1835 358.838 61.8981 360.637 65.2863C362.437 68.6745 363.34 72.3206 363.348 76.2246C363.35 76.9286 363.319 77.6327 363.257 78.3368C363.258 79.0408 363.26 79.8408 363.262 80.7368L325.342 80.8164C325.542 84.464 326.38 87.5023 327.857 89.9312C329.398 92.296 331.29 94.084 333.532 95.2953C335.839 96.5064 338.272 97.1093 340.832 97.104C344.16 97.097 346.943 96.3231 349.179 94.7824C351.416 93.2417 353.044 91.1583 354.062 88.5322L362.03 88.5154C360.76 92.9341 358.303 96.6193 354.661 99.5709C351.083 102.458 346.479 103.908 340.847 103.92ZM340.756 60.816C336.916 60.8241 333.495 62.0153 330.492 64.3896C327.552 66.6998 325.863 70.0953 325.425 74.5763L355.377 74.5134C355.176 70.2258 353.697 66.8689 350.94 64.4427C348.183 62.0164 344.788 60.8076 340.756 60.816ZM395.695 103.805C390.959 103.815 386.796 102.735 383.208 100.567C379.683 98.3984 376.925 95.4282 374.933 91.6563C373.005 87.8844 372.036 83.5984 372.026 78.7984C372.016 73.9984 372.999 69.7404 374.975 66.0242C376.951 62.244 379.697 59.2943 383.213 57.1749C386.728 54.9915 390.886 53.8948 395.686 53.8847C399.59 53.8765 403.048 54.6692 406.059 56.2629C409.07 57.8566 411.411 60.0917 413.081 62.9682L413.019 33.4962L421.083 33.4793L421.228 102.599L413.932 102.614L413.148 94.7441C411.617 97.0513 409.413 99.136 406.537 100.998C403.661 102.86 400.047 103.796 395.695 103.805ZM396.544 96.795C399.744 96.7883 402.558 96.0463 404.987 94.5692C407.48 93.028 409.396 90.912 410.734 88.2212C412.136 85.5302 412.834 82.3927 412.826 78.8087C412.819 75.2248 412.108 72.0902 410.694 69.4052C409.345 66.72 407.42 64.6441 404.921 63.1773C402.486 61.6464 399.669 60.8843 396.469 60.8911C393.333 60.8976 390.518 61.6715 388.025 63.2128C385.597 64.6899 383.681 66.7739 382.279 69.4649C380.94 72.1557 380.275 75.2931 380.282 78.8771C380.29 82.4611 380.968 85.5957 382.318 88.2808C383.732 90.9659 385.656 93.0738 388.091 94.6047C390.59 96.0715 393.408 96.8016 396.544 96.795Z" fill="#FFCB67"/>
<path d="M30.0948 103.934C25.3597 104.027 21.1792 103.02 17.5535 100.914C13.9917 98.8075 11.1821 95.8858 9.12483 92.1492C7.13152 88.4114 6.08803 84.1429 5.99437 79.3438C5.90071 74.5448 6.80948 70.2702 8.72067 66.5202C10.6306 62.7062 13.3246 59.7091 16.8028 57.5288C20.2796 55.2845 24.4176 54.1156 29.2167 54.0219C33.12 53.9457 36.5909 54.6781 39.6296 56.2191C42.6682 57.7601 45.0475 59.9541 46.7673 62.8011L46.1923 33.3347L54.2547 33.1774L55.6034 102.284L48.3088 102.427L47.3874 94.5711C45.8966 96.9046 43.7296 99.0273 40.8864 100.939C38.0432 102.851 34.4459 103.849 30.0948 103.934ZM30.8219 96.9107C34.0213 96.8483 36.8224 96.0575 39.2252 94.5383C41.6907 92.9539 43.5692 90.8049 44.8605 88.0911C46.2157 85.3762 46.8584 82.227 46.7885 78.6437C46.7185 75.0604 45.9535 71.9387 44.4933 69.2787C43.0971 66.6175 41.1369 64.5753 38.6126 63.1523C36.1511 61.664 33.3207 60.9511 30.1213 61.0136C26.9859 61.0748 24.1854 61.8976 21.7199 63.482C19.317 65.0012 17.438 67.1182 16.0827 69.8332C14.7914 72.5469 14.1807 75.6954 14.2507 79.2787C14.3206 82.862 15.0537 85.9843 16.4499 88.6456C17.91 91.3056 19.8709 93.3797 22.3324 94.868C24.8566 96.291 27.6865 96.9719 30.8219 96.9107ZM90.1726 102.762C85.6295 102.85 81.5782 101.905 78.0189 99.9264C74.4584 97.8835 71.6181 95.0264 69.4981 91.355C67.442 87.6824 66.3647 83.3186 66.266 78.2636C66.1686 73.2725 67.0755 68.902 68.9867 65.152C70.8966 61.338 73.5913 58.3729 77.0707 56.2566C80.6128 54.075 84.7194 52.9387 89.3905 52.8475C93.9976 52.7576 97.9855 53.736 101.354 55.7827C104.785 57.7641 107.43 60.433 109.288 63.7894C111.146 67.1458 112.113 70.7756 112.189 74.6788C112.203 75.3827 112.184 76.0872 112.134 76.7923C112.148 77.4962 112.163 78.296 112.181 79.1919L74.2681 79.9318C74.5312 83.5753 75.4224 86.5985 76.9416 89.0013C78.5235 91.3389 80.4461 93.0937 82.7094 94.2658C85.0367 95.4366 87.4801 95.997 90.0396 95.9471C93.367 95.8821 96.1354 95.06 98.345 93.4806C100.555 91.9011 102.146 89.7897 103.118 87.1462L111.085 86.9907C109.891 91.4309 107.5 95.1582 103.91 98.1729C100.383 101.122 95.8035 102.652 90.1726 102.762ZM89.3315 59.666C85.4923 59.7409 82.092 60.9915 79.1308 63.4177C76.2323 65.7788 74.6028 69.2032 74.2423 73.6911L104.189 73.1067C103.913 68.8232 102.376 65.4926 99.5768 63.1147C96.7778 60.7369 93.3628 59.5873 89.3315 59.666ZM140.611 100.625C136.26 100.71 132.816 99.7211 130.279 97.6582C127.742 95.5953 126.42 91.8124 126.313 86.3095L125.802 60.1065L117.547 60.2676L117.414 53.4529L125.669 53.2918L126.501 41.8493L133.508 41.7126L133.731 53.1344L147.744 52.8609L147.877 59.6756L133.864 59.9491L134.375 86.1521C134.434 89.1596 135.082 91.1953 136.319 92.2594C137.555 93.2594 139.708 93.7295 142.78 93.6696L147.771 93.5722L147.906 100.483L140.611 100.625ZM174.776 101.111C170.809 101.188 167.5 100.581 164.851 99.288C162.201 97.9954 160.214 96.2419 158.891 94.0273C157.567 91.8127 156.88 89.3936 156.829 86.7701C156.734 81.9071 158.516 78.1275 162.177 75.4316C165.837 72.7357 170.866 71.3253 177.265 71.2004L190.126 70.9494L190.115 70.3735C190.034 66.2143 188.885 63.1001 186.668 61.031C184.45 58.8979 181.517 57.8669 177.87 57.9381C174.735 57.9993 172.031 58.8522 169.759 60.4968C167.549 62.0762 166.186 64.3753 165.668 67.394L157.414 67.555C157.666 64.0935 158.761 61.1595 160.699 58.7533C162.7 56.3458 165.193 54.5048 168.176 53.2303C171.159 51.8919 174.346 51.1896 177.737 51.1234C184.392 50.9935 189.418 52.6877 192.815 56.2061C196.275 59.6593 198.063 64.3293 198.178 70.2162L198.749 99.4906L191.55 99.6311L190.904 91.0981C189.612 93.8118 187.674 96.1541 185.088 98.1249C182.564 100.03 179.127 101.026 174.776 101.111ZM175.891 94.2716C178.962 94.2117 181.57 93.3606 183.714 91.7185C185.923 90.0751 187.578 87.9624 188.68 85.3804C189.782 82.7984 190.305 80.0997 190.25 77.2842L190.248 77.1882L178.058 77.4261C173.323 77.5185 169.98 78.4159 168.029 80.1183C166.141 81.7555 165.22 83.7898 165.268 86.2214C165.316 88.7169 166.252 90.715 168.073 92.2158C169.958 93.6513 172.563 94.3365 175.891 94.2716ZM232.75 99.9792C228.207 100.068 224.092 99.124 220.405 97.1476C216.78 95.1059 213.876 92.25 211.692 88.58C209.571 84.8446 208.461 80.4815 208.364 75.4904C208.267 70.4994 209.205 66.1282 211.181 62.3769C213.219 58.5605 216.009 55.5934 219.553 53.4759C223.159 51.2931 227.233 50.1574 231.776 50.0687C237.407 49.9588 242.171 51.3381 246.068 54.2067C250.029 57.0739 252.569 60.9611 253.689 65.8682L245.434 66.0293C244.737 63.0983 243.125 60.8573 240.598 59.3064C238.07 57.6914 235.143 56.9164 231.815 56.9813C229.128 57.0337 226.613 57.7549 224.272 59.1449C221.931 60.5348 220.05 62.5879 218.631 65.3041C217.212 68.0203 216.541 71.3621 216.618 75.3293C216.696 79.2966 217.497 82.6096 219.021 85.2683C220.545 87.9271 222.505 89.9372 224.9 91.2988C227.293 92.5963 229.834 93.2189 232.521 93.1664C235.849 93.1015 238.745 92.2448 241.209 90.5964C243.672 88.884 245.194 86.5179 245.775 83.4979L254.03 83.3369C253.164 88.1547 250.808 92.1054 246.964 95.189C243.119 98.2726 238.381 99.8693 232.75 99.9792ZM265.584 98.1862L264.235 29.0794L272.297 28.922L272.876 58.5804C274.419 55.6057 276.646 53.2898 279.558 51.6327C282.469 49.9116 285.652 49.0173 289.107 48.9499C294.61 48.8425 299.059 50.484 302.454 53.8744C305.848 57.2008 307.614 62.4153 307.752 69.518L308.296 97.3527L300.329 97.5081L299.803 70.5373C299.609 60.6192 295.513 55.7382 287.515 55.8943C283.355 55.9754 279.897 57.5472 277.141 60.6096C274.383 63.608 273.057 67.8586 273.165 73.3616L273.646 98.0289L265.584 98.1862ZM341.937 97.8483C337.394 97.937 333.343 96.9919 329.784 95.0129C326.223 92.97 323.383 90.1129 321.263 86.4416C319.207 82.769 318.129 78.4052 318.031 73.3501C317.933 68.3591 318.84 63.9886 320.751 60.2386C322.661 56.4246 325.356 53.4594 328.835 51.3431C332.377 49.1616 336.484 48.0253 341.155 47.9341C345.762 47.8442 349.75 48.8226 353.119 50.8692C356.55 52.8506 359.195 55.5195 361.052 58.8759C362.91 62.2323 363.877 65.8621 363.953 69.7654C363.967 70.4693 363.949 71.1738 363.899 71.8789C363.912 72.5827 363.928 73.3826 363.945 74.2784L326.033 75.0183C326.296 78.6619 327.187 81.6851 328.706 84.0879C330.288 86.4255 332.211 88.1803 334.474 89.3523C336.801 90.5232 339.245 91.0836 341.804 91.0336C345.132 90.9687 347.9 90.1465 350.11 88.5671C352.319 86.9877 353.91 84.8762 354.883 82.2328L362.849 82.0773C361.656 86.5174 359.264 90.2448 355.674 93.2594C352.147 96.2088 347.568 97.7384 341.937 97.8483ZM341.096 54.7525C337.257 54.8275 333.857 56.0781 330.895 58.5043C327.997 60.8653 326.367 64.2898 326.007 68.7776L355.953 68.1932C355.678 63.9098 354.14 60.5791 351.341 58.2013C348.542 55.8235 345.127 54.6739 341.096 54.7525ZM396.775 96.7781C392.04 96.8705 387.859 95.8639 384.234 93.7583C380.672 91.6514 377.862 88.7296 375.805 84.9931C373.812 81.2552 372.768 76.9868 372.675 72.1877C372.581 67.3886 373.49 63.1141 375.401 59.3641C377.311 55.5501 380.005 52.5529 383.483 50.3726C386.96 48.1284 391.098 46.9594 395.897 46.8658C399.8 46.7896 403.271 47.522 406.31 49.063C409.348 50.604 411.728 52.798 413.448 55.645L412.872 26.1786L420.935 26.0212L422.284 95.1281L414.989 95.2704L414.068 87.4149C412.577 89.7485 410.41 91.8711 407.567 93.783C404.723 95.6948 401.126 96.6932 396.775 96.7781ZM397.502 89.7546C400.701 89.6922 403.503 88.9014 405.905 87.3822C408.371 85.7978 410.249 83.6487 411.541 80.935C412.896 78.22 413.539 75.0709 413.469 71.4876C413.399 67.9043 412.634 64.7826 411.173 62.1226C409.777 59.4613 407.817 57.4192 405.293 55.9962C402.831 54.5079 400.001 53.795 396.801 53.8574C393.666 53.9186 390.866 54.7414 388.4 56.3258C385.997 57.845 384.118 59.9621 382.763 62.677C381.472 65.3907 380.861 68.5393 380.931 72.1226C381.001 75.7059 381.734 78.8282 383.13 81.4895C384.59 84.1495 386.551 86.2236 389.013 87.7119C391.537 89.1349 394.367 89.8158 397.502 89.7546Z" fill="white"/>
</svg>
